<mxfile host="Electron" modified="2025-07-16T15:36:16.800Z" agent="Mozilla/5.0 (Windows NT 10.0; Win64; x64) AppleWebKit/537.36 (KHTML, like Gecko) draw.io/24.5.1 Chrome/124.0.6367.207 Electron/30.0.6 Safari/537.36" etag="6ZAi6GZk3dr9OXBinwy5" version="24.5.1" type="device">
  <diagram name="페이지-1" id="90cOz0F_2rovdvV6B7od">
    <mxGraphModel dx="1185" dy="684" grid="1" gridSize="10" guides="1" tooltips="1" connect="1" arrows="1" fold="1" page="1" pageScale="1" pageWidth="1654" pageHeight="1169" math="0" shadow="0">
      <root>
        <mxCell id="0" />
        <mxCell id="1" parent="0" />
        <mxCell id="OxWpQp191X9UPaRrO7H3-2" value="" style="verticalLabelPosition=bottom;aspect=fixed;html=1;shape=mxgraph.salesforce.heroku;" vertex="1" parent="1">
          <mxGeometry x="720" y="480" width="80" height="80" as="geometry" />
        </mxCell>
        <mxCell id="OxWpQp191X9UPaRrO7H3-3" value="" style="dashed=0;outlineConnect=0;html=1;align=center;labelPosition=center;verticalLabelPosition=bottom;verticalAlign=top;shape=mxgraph.weblogos.github" vertex="1" parent="1">
          <mxGeometry x="720" y="680" width="80" height="80" as="geometry" />
        </mxCell>
        <mxCell id="OxWpQp191X9UPaRrO7H3-4" value="" style="shape=image;verticalLabelPosition=bottom;labelBackgroundColor=default;verticalAlign=top;aspect=fixed;imageAspect=0;image=https://static.vecteezy.com/system/resources/previews/029/463/358/non_2x/chatgpt-logo-open-ai-logotype-ai-chatbot-chat-gpt-app-ai-artificial-intelligence-chatbot-services-logo-company-stock-free-vector.jpg;" vertex="1" parent="1">
          <mxGeometry x="960" y="480" width="80" height="80" as="geometry" />
        </mxCell>
        <mxCell id="OxWpQp191X9UPaRrO7H3-5" value="" style="endArrow=open;html=1;rounded=0;strokeColor=#666666;strokeWidth=3;curved=0;endFill=0;" edge="1" parent="1">
          <mxGeometry width="50" height="50" relative="1" as="geometry">
            <mxPoint x="760" y="670" as="sourcePoint" />
            <mxPoint x="760" y="570" as="targetPoint" />
          </mxGeometry>
        </mxCell>
        <mxCell id="OxWpQp191X9UPaRrO7H3-6" value="&lt;b&gt;&lt;font color=&quot;#666666&quot; style=&quot;font-size: 14px;&quot; face=&quot;Comic Sans MS&quot;&gt;deploy&lt;/font&gt;&lt;/b&gt;" style="text;html=1;align=center;verticalAlign=middle;whiteSpace=wrap;rounded=0;rotation=90;" vertex="1" parent="1">
          <mxGeometry x="745" y="610" width="60" height="20" as="geometry" />
        </mxCell>
        <mxCell id="OxWpQp191X9UPaRrO7H3-7" value="" style="endArrow=open;html=1;rounded=0;strokeColor=#666666;strokeWidth=3;curved=0;endFill=0;" edge="1" parent="1">
          <mxGeometry width="50" height="50" relative="1" as="geometry">
            <mxPoint x="810" y="500" as="sourcePoint" />
            <mxPoint x="950" y="500" as="targetPoint" />
          </mxGeometry>
        </mxCell>
        <mxCell id="OxWpQp191X9UPaRrO7H3-8" value="&lt;b&gt;&lt;font color=&quot;#666666&quot; style=&quot;font-size: 14px;&quot; face=&quot;Comic Sans MS&quot;&gt;request&lt;/font&gt;&lt;/b&gt;" style="text;html=1;align=center;verticalAlign=middle;whiteSpace=wrap;rounded=0;rotation=0;" vertex="1" parent="1">
          <mxGeometry x="850" y="475" width="60" height="20" as="geometry" />
        </mxCell>
        <mxCell id="OxWpQp191X9UPaRrO7H3-9" value="" style="endArrow=open;html=1;rounded=0;strokeColor=#666666;strokeWidth=3;curved=0;endFill=0;" edge="1" parent="1">
          <mxGeometry width="50" height="50" relative="1" as="geometry">
            <mxPoint x="570" y="520" as="sourcePoint" />
            <mxPoint x="710" y="520" as="targetPoint" />
          </mxGeometry>
        </mxCell>
        <mxCell id="OxWpQp191X9UPaRrO7H3-10" value="&lt;b&gt;&lt;font color=&quot;#666666&quot; style=&quot;font-size: 14px;&quot; face=&quot;Comic Sans MS&quot;&gt;api request&lt;/font&gt;&lt;/b&gt;" style="text;html=1;align=center;verticalAlign=middle;whiteSpace=wrap;rounded=0;rotation=0;" vertex="1" parent="1">
          <mxGeometry x="600" y="495" width="80" height="23.33" as="geometry" />
        </mxCell>
        <mxCell id="OxWpQp191X9UPaRrO7H3-11" value="" style="sketch=0;aspect=fixed;pointerEvents=1;shadow=0;dashed=0;html=1;strokeColor=none;labelPosition=center;verticalLabelPosition=bottom;verticalAlign=top;align=center;fillColor=#666666;shape=mxgraph.azure.user" vertex="1" parent="1">
          <mxGeometry x="500" y="475" width="60" height="63.77" as="geometry" />
        </mxCell>
        <mxCell id="OxWpQp191X9UPaRrO7H3-16" value="" style="shape=image;verticalLabelPosition=bottom;labelBackgroundColor=default;verticalAlign=top;aspect=fixed;imageAspect=0;image=https://adware-technologies.s3.amazonaws.com/uploads/technology/thumbnail/20/express-js.png;" vertex="1" parent="1">
          <mxGeometry x="680" y="390" width="80" height="80" as="geometry" />
        </mxCell>
        <mxCell id="OxWpQp191X9UPaRrO7H3-17" value="" style="shape=image;verticalLabelPosition=bottom;labelBackgroundColor=default;verticalAlign=top;aspect=fixed;imageAspect=0;image=https://upload.wikimedia.org/wikipedia/commons/thumb/f/f5/Typescript.svg/1200px-Typescript.svg.png;" vertex="1" parent="1">
          <mxGeometry x="770" y="390" width="80" height="80" as="geometry" />
        </mxCell>
        <mxCell id="OxWpQp191X9UPaRrO7H3-22" value="" style="endArrow=open;html=1;rounded=0;strokeColor=#666666;strokeWidth=3;curved=0;endFill=0;" edge="1" parent="1">
          <mxGeometry width="50" height="50" relative="1" as="geometry">
            <mxPoint x="950" y="540" as="sourcePoint" />
            <mxPoint x="810" y="540" as="targetPoint" />
          </mxGeometry>
        </mxCell>
        <mxCell id="OxWpQp191X9UPaRrO7H3-23" value="&lt;b&gt;&lt;font color=&quot;#666666&quot; style=&quot;font-size: 14px;&quot; face=&quot;Comic Sans MS&quot;&gt;response&lt;/font&gt;&lt;/b&gt;" style="text;html=1;align=center;verticalAlign=middle;whiteSpace=wrap;rounded=0;rotation=0;" vertex="1" parent="1">
          <mxGeometry x="850" y="518.33" width="60" height="20" as="geometry" />
        </mxCell>
        <mxCell id="OxWpQp191X9UPaRrO7H3-24" value="&lt;div style=&quot;&quot;&gt;&lt;font style=&quot;font-size: 12px;&quot;&gt;&amp;nbsp; &amp;nbsp;[POST] https://orpheus-lyre.gramjs.com&amp;nbsp; &amp;nbsp;&lt;/font&gt;&lt;/div&gt;&lt;div style=&quot;&quot;&gt;&amp;nbsp; &amp;nbsp;&lt;span style=&quot;font-size: 9px; font-weight: 400;&quot;&gt;application/json&amp;nbsp; &amp;nbsp;&lt;/span&gt;&lt;/div&gt;&lt;div style=&quot;&quot;&gt;&lt;br&gt;&lt;/div&gt;&lt;div style=&quot;&quot;&gt;&amp;nbsp; &amp;nbsp;REQUEST&lt;/div&gt;&lt;div style=&quot;&quot;&gt;&lt;br&gt;&lt;/div&gt;&lt;div style=&quot;font-size: 8px;&quot;&gt;&lt;div style=&quot;&quot;&gt;&lt;span style=&quot;font-weight: normal;&quot;&gt;&lt;font style=&quot;font-size: 8px;&quot;&gt;&lt;span style=&quot;white-space: pre;&quot;&gt;&#x9;&lt;/span&gt;{&lt;/font&gt;&lt;/span&gt;&lt;/div&gt;&lt;div style=&quot;&quot;&gt;&lt;/div&gt;&lt;/div&gt;&lt;font style=&quot;font-size: 8px;&quot;&gt;&lt;span style=&quot;font-weight: normal; white-space: pre;&quot;&gt;&lt;span style=&quot;white-space: pre;&quot;&gt;&#x9;&lt;/span&gt;&#x9;&lt;/span&gt;&lt;font style=&quot;font-weight: normal; font-size: 8px;&quot; color=&quot;#cc0000&quot;&gt;&quot;density&quot;&lt;/font&gt;&lt;span style=&quot;font-weight: normal;&quot;&gt;: 99,&lt;/span&gt;&lt;br&gt;&lt;span style=&quot;font-weight: normal;&quot;&gt;&lt;span style=&quot;white-space: pre;&quot;&gt;&lt;span style=&quot;white-space: pre;&quot;&gt;&#x9;&lt;/span&gt;&#x9;&lt;/span&gt;&lt;/span&gt;&lt;span style=&quot;font-weight: normal;&quot;&gt;&lt;font style=&quot;font-size: 8px;&quot; color=&quot;#cc0000&quot;&gt;&quot;title&quot;&lt;/font&gt;:&amp;nbsp;&lt;font style=&quot;font-size: 8px;&quot; color=&quot;#00cc00&quot;&gt;&quot;Lorem ipsum dolor sit amit&quot;&lt;/font&gt;,&lt;/span&gt;&lt;br&gt;&lt;span style=&quot;font-weight: normal; white-space: pre;&quot;&gt;&lt;span style=&quot;white-space: pre;&quot;&gt;&#x9;&lt;/span&gt;&#x9;&lt;/span&gt;&lt;font style=&quot;font-weight: normal; font-size: 8px;&quot; color=&quot;#cc0000&quot;&gt;&quot;content&quot;&lt;/font&gt;&lt;span style=&quot;font-weight: normal;&quot;&gt;:&lt;/span&gt;&lt;span style=&quot;font-weight: normal;&quot;&gt;&amp;nbsp;&lt;/span&gt;&lt;font style=&quot;font-weight: normal; font-size: 8px;&quot; color=&quot;#00cc00&quot;&gt;&quot;Set tincidunt tortor nec...&quot;&lt;/font&gt;&lt;br&gt;&lt;span style=&quot;font-weight: normal;&quot;&gt;&lt;font style=&quot;font-size: 8px;&quot; color=&quot;#00cc00&quot;&gt;&lt;span style=&quot;white-space: pre;&quot;&gt;&lt;span style=&quot;white-space: pre;&quot;&gt;&#x9;&lt;/span&gt;&#x9;&lt;/span&gt;&lt;/font&gt;&lt;/span&gt;&lt;font style=&quot;font-weight: normal; font-size: 8px;&quot; color=&quot;#cc0000&quot;&gt;&quot;title-fix&quot;&lt;/font&gt;&lt;span style=&quot;font-weight: normal;&quot;&gt;:&lt;/span&gt;&lt;span style=&quot;font-weight: normal;&quot;&gt;&amp;nbsp;&lt;/span&gt;&lt;font style=&quot;font-weight: normal; font-size: 8px;&quot; color=&quot;#00cc00&quot;&gt;&quot;Lorem ipsum dolor sit amit&quot;&lt;/font&gt;&lt;span style=&quot;font-weight: normal;&quot;&gt;,&lt;/span&gt;&lt;br&gt;&lt;span style=&quot;font-weight: normal; white-space: pre;&quot;&gt;&lt;span style=&quot;white-space: pre;&quot;&gt;&#x9;&lt;/span&gt;&#x9;&lt;/span&gt;&lt;font style=&quot;font-weight: normal; font-size: 8px;&quot; color=&quot;#cc0000&quot;&gt;&quot;content-fix&quot;&lt;/font&gt;&lt;span style=&quot;font-weight: normal;&quot;&gt;:&amp;nbsp;&lt;/span&gt;&lt;font style=&quot;font-weight: normal; font-size: 8px;&quot; color=&quot;#00cc00&quot;&gt;&quot;Set&amp;nbsp;&lt;/font&gt;&lt;font style=&quot;font-weight: normal; font-size: 8px;&quot; color=&quot;#00cc00&quot;&gt;tincidunt&amp;nbsp;&lt;/font&gt;&lt;font style=&quot;font-weight: normal; font-size: 8px;&quot; color=&quot;#00cc00&quot;&gt;tortor nec...&quot;&amp;nbsp; &amp;nbsp;&lt;/font&gt;&lt;br&gt;&lt;/font&gt;&lt;div style=&quot;font-size: 8px;&quot;&gt;&lt;div style=&quot;&quot;&gt;&lt;span style=&quot;font-weight: normal;&quot;&gt;&lt;font style=&quot;font-size: 8px;&quot;&gt;&lt;span style=&quot;white-space: pre;&quot;&gt;&#x9;&lt;/span&gt;}&lt;/font&gt;&lt;/span&gt;&lt;/div&gt;&lt;/div&gt;&lt;div style=&quot;font-size: 11px;&quot;&gt;&lt;div&gt;&lt;span style=&quot;white-space: pre;&quot;&gt;&#x9;&lt;/span&gt;&lt;span style=&quot;white-space: pre;&quot;&gt;&#x9;&lt;/span&gt;&lt;span style=&quot;white-space: pre;&quot;&gt;&#x9;&lt;/span&gt;&lt;span style=&quot;white-space: pre;&quot;&gt;&#x9;&lt;/span&gt;&lt;span style=&quot;white-space: pre;&quot;&gt;&#x9;&lt;/span&gt;&lt;br&gt;&lt;/div&gt;&lt;div&gt;&amp;nbsp; &amp;nbsp;RESPONSE&lt;/div&gt;&lt;div&gt;&lt;span style=&quot;font-weight: 400;&quot;&gt;&lt;font style=&quot;font-size: 9px;&quot;&gt;&amp;nbsp; &amp;nbsp;&amp;nbsp;&lt;/font&gt;&lt;/span&gt;&lt;/div&gt;&lt;div style=&quot;font-size: 8px;&quot;&gt;&lt;span style=&quot;font-weight: normal;&quot;&gt;&lt;span style=&quot;white-space: pre;&quot;&gt;&#x9;&lt;/span&gt;{&lt;/span&gt;&lt;br&gt;&lt;/div&gt;&lt;div style=&quot;font-size: 8px;&quot;&gt;&lt;span style=&quot;font-weight: normal;&quot;&gt;&lt;span style=&quot;white-space: pre;&quot;&gt;&#x9;&lt;/span&gt;&amp;nbsp; &amp;nbsp;&lt;font color=&quot;#cc0000&quot;&gt;&quot;success&quot;&lt;/font&gt;:&amp;nbsp;&lt;font color=&quot;#0000ff&quot;&gt;true&lt;/font&gt;,&lt;/span&gt;&lt;/div&gt;&lt;div style=&quot;font-size: 8px;&quot;&gt;&lt;span style=&quot;font-weight: normal;&quot;&gt;&lt;span style=&quot;white-space: pre;&quot;&gt;&#x9;&lt;/span&gt;&amp;nbsp; &amp;nbsp;&lt;font color=&quot;#cc0000&quot;&gt;&quot;message&quot;&lt;/font&gt;:&amp;nbsp;&lt;font color=&quot;#00cc00&quot;&gt;&quot;message from server&quot;&lt;/font&gt;,&lt;/span&gt;&lt;/div&gt;&lt;div style=&quot;font-size: 8px;&quot;&gt;&lt;span style=&quot;font-weight: normal;&quot;&gt;&lt;span style=&quot;white-space: pre;&quot;&gt;&#x9;&lt;/span&gt;&amp;nbsp; &amp;nbsp;&lt;font color=&quot;#cc0000&quot;&gt;&quot;data&quot;&lt;/font&gt;: {&lt;/span&gt;&lt;/div&gt;&lt;div style=&quot;font-size: 8px;&quot;&gt;&lt;span style=&quot;font-weight: normal;&quot;&gt;&lt;span style=&quot;white-space: pre;&quot;&gt;&#x9;&#x9;&lt;/span&gt;&lt;font color=&quot;#cc0000&quot;&gt;&quot;density&quot;&lt;/font&gt;: 99,&lt;br&gt;&lt;/span&gt;&lt;/div&gt;&lt;div style=&quot;font-size: 8px;&quot;&gt;&lt;span style=&quot;font-weight: normal;&quot;&gt;&lt;span style=&quot;white-space: pre;&quot;&gt;&#x9;&#x9;&lt;/span&gt;&lt;/span&gt;&lt;span style=&quot;font-weight: normal;&quot;&gt;&lt;font color=&quot;#cc0000&quot;&gt;&quot;title&quot;&lt;/font&gt;:&amp;nbsp;&lt;font color=&quot;#00cc00&quot;&gt;&quot;Lorem ipsum dolor sit amit&quot;&lt;/font&gt;,&lt;/span&gt;&lt;/div&gt;&lt;div style=&quot;font-size: 8px;&quot;&gt;&lt;span style=&quot;font-weight: normal;&quot;&gt;&lt;span style=&quot;white-space: pre;&quot;&gt;&#x9;&#x9;&lt;/span&gt;&lt;font color=&quot;#cc0000&quot;&gt;&quot;content&quot;&lt;/font&gt;:&amp;nbsp;&lt;font color=&quot;#00cc00&quot;&gt;&quot;Set tincidunt tortor nec...&quot;&lt;/font&gt;&lt;/span&gt;&lt;/div&gt;&lt;div style=&quot;font-size: 8px;&quot;&gt;&lt;span style=&quot;font-weight: normal;&quot;&gt;&lt;font color=&quot;#00cc00&quot;&gt;&lt;span style=&quot;white-space: pre;&quot;&gt;&#x9;&#x9;&lt;/span&gt;&lt;/font&gt;&lt;/span&gt;&lt;font style=&quot;font-weight: normal;&quot; color=&quot;#cc0000&quot;&gt;&quot;title-fix&quot;&lt;/font&gt;&lt;span style=&quot;font-weight: normal;&quot;&gt;:&lt;/span&gt;&lt;span style=&quot;font-weight: normal;&quot;&gt;&amp;nbsp;&lt;/span&gt;&lt;font style=&quot;font-weight: normal;&quot; color=&quot;#00cc00&quot;&gt;&quot;Lorem ipsum dolor sit amit&quot;&lt;/font&gt;&lt;span style=&quot;font-weight: normal;&quot;&gt;,&lt;/span&gt;&lt;/div&gt;&lt;div style=&quot;font-size: 8px;&quot;&gt;&lt;span style=&quot;font-weight: normal;&quot;&gt;&lt;span style=&quot;white-space: pre;&quot;&gt;&#x9;&#x9;&lt;/span&gt;&lt;font color=&quot;#cc0000&quot;&gt;&quot;content-fix&quot;&lt;/font&gt;:&amp;nbsp;&lt;font color=&quot;#00cc00&quot;&gt;&quot;Set&amp;nbsp;&lt;/font&gt;&lt;font color=&quot;#00cc00&quot;&gt;tincidunt&amp;nbsp;&lt;/font&gt;&lt;font color=&quot;#00cc00&quot;&gt;tortor nec...&quot;&amp;nbsp; &amp;nbsp;&lt;/font&gt;&lt;/span&gt;&lt;/div&gt;&lt;div style=&quot;font-size: 8px;&quot;&gt;&lt;span style=&quot;font-weight: normal;&quot;&gt;&lt;span style=&quot;white-space: pre;&quot;&gt;&#x9;&lt;/span&gt;&amp;nbsp; &amp;nbsp;},&lt;/span&gt;&lt;/div&gt;&lt;div style=&quot;font-size: 8px;&quot;&gt;&lt;span style=&quot;font-weight: normal;&quot;&gt;&lt;span style=&quot;white-space: pre;&quot;&gt;&#x9;&lt;/span&gt;&amp;nbsp; &amp;nbsp;&lt;font color=&quot;#cc0000&quot;&gt;&quot;error&quot;&lt;/font&gt;: {&lt;/span&gt;&lt;/div&gt;&lt;div style=&quot;font-size: 8px;&quot;&gt;&lt;div&gt;&lt;span style=&quot;font-weight: normal;&quot;&gt;&lt;span style=&quot;white-space: pre;&quot;&gt;&#x9;&#x9;&lt;/span&gt;&lt;/span&gt;&lt;span style=&quot;font-weight: normal;&quot;&gt;&lt;font color=&quot;#cc0000&quot;&gt;&quot;type&quot;&lt;/font&gt;:&amp;nbsp;&lt;font color=&quot;#00cc00&quot;&gt;&quot;Lorem ipsum dolor sit amit&quot;&lt;/font&gt;,&lt;/span&gt;&lt;br&gt;&lt;/div&gt;&lt;div&gt;&lt;span style=&quot;font-weight: normal;&quot;&gt;&lt;span style=&quot;white-space: pre;&quot;&gt;&#x9;&#x9;&lt;/span&gt;&lt;/span&gt;&lt;font style=&quot;font-weight: 400;&quot; color=&quot;#cc0000&quot;&gt;&quot;code&quot;&lt;/font&gt;&lt;span style=&quot;font-weight: 400;&quot;&gt;: 99,&lt;/span&gt;&lt;/div&gt;&lt;div&gt;&lt;font style=&quot;font-weight: normal;&quot; color=&quot;#cc0000&quot;&gt;&lt;span style=&quot;white-space: pre;&quot;&gt;&#x9;&#x9;&lt;/span&gt;&quot;message&quot;&lt;/font&gt;&lt;span style=&quot;font-weight: normal;&quot;&gt;:&lt;/span&gt;&lt;span style=&quot;font-weight: normal;&quot;&gt;&amp;nbsp;&lt;/span&gt;&lt;font style=&quot;font-weight: normal;&quot; color=&quot;#00cc00&quot;&gt;&quot;Lorem ipsum dolor sit amit&quot;&lt;/font&gt;&lt;span style=&quot;font-weight: 400;&quot;&gt;,&lt;/span&gt;&lt;span style=&quot;font-weight: 400;&quot;&gt;&lt;br&gt;&lt;/span&gt;&lt;/div&gt;&lt;div&gt;&lt;span style=&quot;font-weight: normal;&quot;&gt;&lt;span style=&quot;white-space: pre;&quot;&gt;&#x9;&#x9;&lt;/span&gt;&lt;font color=&quot;#cc0000&quot;&gt;&quot;trace_id&quot;&lt;/font&gt;:&amp;nbsp;&lt;font color=&quot;#00cc00&quot;&gt;&quot;TRA-123&quot;&lt;/font&gt;&lt;/span&gt;&lt;/div&gt;&lt;div&gt;&lt;span style=&quot;font-weight: normal;&quot;&gt;&lt;span style=&quot;white-space: pre;&quot;&gt;&#x9;&lt;/span&gt;&amp;nbsp; &amp;nbsp;}&lt;/span&gt;&lt;br&gt;&lt;/div&gt;&lt;/div&gt;&lt;div style=&quot;font-size: 8px;&quot;&gt;&lt;span style=&quot;font-weight: normal;&quot;&gt;&lt;span style=&quot;white-space: pre;&quot;&gt;&#x9;&lt;/span&gt;}&lt;/span&gt;&lt;/div&gt;&lt;div&gt;&lt;br&gt;&lt;/div&gt;&lt;/div&gt;" style="text;html=1;align=left;verticalAlign=top;rounded=0;fontFamily=Comic Sans MS;fontStyle=1;fontColor=#E6E6E6;labelBackgroundColor=#1A1A1A;labelBorderColor=default;textShadow=1;whiteSpace=wrap;" vertex="1" parent="1">
          <mxGeometry x="210" y="360" width="280" height="393.78" as="geometry" />
        </mxCell>
      </root>
    </mxGraphModel>
  </diagram>
</mxfile>
